# xmcd
#
# Track frame offsets: 
#        182
#        18470
#        34897
#        54225
#        75732
#        94780
#        112135
#        133217
#        152705
#        168047
#        184572
#        198870
#        219587
#        234932
#
# Disc length: 3161 seconds
#
# Revision: 5
# Processed by: cddbd v1.5.2PL0 Copyright (c) Steve Scherf et al.
# Submitted via: ExactAudioCopy v1.0b3
#
DISCID=b10c570e
DTITLE=Sergio Mendes - Brasileiro
DYEAR=1992
DGENRE=Folklore
TTITLE0=Fanfarra (Cabua-Le-Le)
TTITLE1=Magalenha
TTITLE2=Indiado
TTITLE3=What is this?
TTITLE4=Lua Soberana
TTITLE5=Sambadouro
TTITLE6=Senhoras do amazonas
TTITLE7=Kalimba
TTITLE8=Barabare
TTITLE9=Esconjuros
TTITLE10=Pipoca
TTITLE11=Magano
TTITLE12=Chorado
TTITLE13=Fanfarra (Despedida)
EXTD=ID3G: 115 YEAR: 1992
EXTT0=
EXTT1=
EXTT2=
EXTT3=
EXTT4=
EXTT5=
EXTT6=
EXTT7=
EXTT8=
EXTT9=
EXTT10=
EXTT11=
EXTT12=
EXTT13=
PLAYORDER=
